<svg xmlns="http://www.w3.org/2000/svg" viewBox="0 0 229.71 167.14"><defs><style>.cls-1{fill:#545555;}.cls-2{fill:#fff;}.cls-3{fill:#bcbdbd;}.cls-4,.cls-6,.cls-7{fill:none;}.cls-4{stroke:#1c1c1a;}.cls-4,.cls-6{stroke-miterlimit:10;stroke-width:2.35px;}.cls-5{fill:#1c1c1a;}.cls-6{stroke:#fff;}</style></defs><g id="Capa_2" data-name="Capa 2"><g id="Layer_1" data-name="Layer 1"><path class="cls-1" d="M120.93,73.73V0L75.07,44.29V90.56a137.32,137.32,0,0,1,45.86-16.83Z"/><path class="cls-2" d="M173.23,31.83,120.93,0V73.73a143,143,0,0,1,25.8-2.13V45l7.05,3.32V71.83a143,143,0,0,1,19.45,2.45Z"/><path class="cls-2" d="M146.73,71.6v2.25h7.05v-2C151.44,71.69,149.08,71.62,146.73,71.6Z"/><polygon class="cls-3" points="100.87 19.37 120.93 73.82 86.82 84.99 92.82 27.15 100.87 19.37"/><polyline class="cls-4" points="59.34 98.78 59.34 35.78 90.54 3.95"/><circle class="cls-5" cx="90.54" cy="4.86" r="4.74"/><polyline class="cls-6" points="59.34 98.78 59.34 35.78 90.54 3.95"/><circle class="cls-2" cx="90.54" cy="4.86" r="4.74"/><path class="cls-2" d="M28.34,139.81A140,140,0,0,1,201.9,86.37c3.44,1.47,6.43-3.59,3-5.08C138.6,52.77,62,75.94,23.27,136.85c-2,3.2,3,6.15,5.07,3Z"/><path class="cls-2" d="M83.25,100.58A19,19,0,0,1,90.9,99a16.52,16.52,0,0,1,12.17,5.11,16.89,16.89,0,0,1,5.05,12.32,17.2,17.2,0,0,1-5,12.48A16.3,16.3,0,0,1,91,134.06a16.62,16.62,0,0,1-7.33-1.63,17.92,17.92,0,0,1-6-4.94V146.1H73.38V114.5a23.07,23.07,0,0,1,3.29-9A19.19,19.19,0,0,1,83.25,100.58ZM81.17,107a13.27,13.27,0,0,0-3.83,9.71,13.76,13.76,0,0,0,1.7,6.83,12.43,12.43,0,0,0,4.87,4.83,13.41,13.41,0,0,0,6.69,1.78,12.69,12.69,0,0,0,6.52-1.78,13,13,0,0,0,4.87-5,13.61,13.61,0,0,0,0-13.53,13.22,13.22,0,0,0-4.82-4.94,12.87,12.87,0,0,0-6.65-1.78A12.66,12.66,0,0,0,81.17,107Z"/><path class="cls-2" d="M112.82,118.63v-4a17.79,17.79,0,0,1,1.4-4.9,16.39,16.39,0,0,1,5.71-7.66q3.6-2.44,6-2.44a7.65,7.65,0,0,1,3.77,1.16l-2.22,3.59q-2.83-1-5.61,1.67a14.66,14.66,0,0,0-3.85,5.9q-.8,2.84-.79,10.62v11.28h-4.38Z"/><path class="cls-2" d="M136.14,86.81a3.46,3.46,0,0,1,2.51,1,3.37,3.37,0,0,1,1,2.49,3.59,3.59,0,0,1-3.56,3.56,3.38,3.38,0,0,1-2.5-1.05,3.43,3.43,0,0,1-1-2.51,3.53,3.53,0,0,1,3.53-3.53ZM134,100.53h4.29v33.38H134Z"/><path class="cls-2" d="M147.55,121.25l-.06-3.56a22.19,22.19,0,0,1,.22-4.44q.66-5.75,2.92-8.43a19,19,0,0,1,4.47-3.62,20.78,20.78,0,0,1,8.61-1.52,13.53,13.53,0,0,1,7,1.9,10.82,10.82,0,0,1,4.58,5.11c.91,2.14,1.37,5.5,1.37,10.06v17.16h-4.26V118a39.15,39.15,0,0,0-.49-7.73,7,7,0,0,0-3-4.7,12.91,12.91,0,0,0-6.66-1.39,11.38,11.38,0,0,0-6.94,2.26,6.72,6.72,0,0,0-2.83,6.14,47.63,47.63,0,0,0-.58,9.1v12.23h-4.32Z"/><path class="cls-7" d="M31.19,136.31a133.8,133.8,0,0,1,73.78-57"/><path class="cls-2" d="M0,157.53H2.92c1.76,0,2.92.93,2.92,2.47v0c0,1.69-1.41,2.55-3.07,2.55H.88v2.76H0Zm2.81,4.24c1.29,0,2.14-.69,2.14-1.71v0c0-1.11-.84-1.69-2.1-1.69h-2v3.43Z"/><path class="cls-2" d="M7.52,159.57h.86v1.5a2.45,2.45,0,0,1,2.35-1.6v.92h-.07c-1.26,0-2.28.9-2.28,2.64v2.3H7.52Z"/><path class="cls-2" d="M11.74,162.47v0a3,3,0,0,1,6,0v0a3,3,0,0,1-3,3A3,3,0,0,1,11.74,162.47Zm5.13,0v0a2.18,2.18,0,0,0-2.14-2.25,2.13,2.13,0,0,0-2.11,2.23v0a2.16,2.16,0,0,0,2.13,2.24A2.13,2.13,0,0,0,16.87,162.47Z"/><path class="cls-2" d="M23.56,159.57h.91l-2.42,6c-.49,1.19-1,1.62-1.91,1.62a2.63,2.63,0,0,1-1.23-.29l.29-.68a1.78,1.78,0,0,0,.91.21c.51,0,.83-.26,1.18-1.08l-2.62-5.73h.95l2.09,4.8Z"/><path class="cls-2" d="M25.45,162.46v0a2.84,2.84,0,0,1,2.76-3,2.74,2.74,0,0,1,2.68,3,2.44,2.44,0,0,1,0,.28H26.32a2,2,0,0,0,2,2,2.4,2.4,0,0,0,1.82-.81l.53.48a3,3,0,0,1-2.37,1.08A2.86,2.86,0,0,1,25.45,162.46Zm4.58-.33a1.89,1.89,0,0,0-1.84-2,2,2,0,0,0-1.87,2Z"/><path class="cls-2" d="M32.32,162.47v0a3,3,0,0,1,5.26-2l-.57.6a2.33,2.33,0,0,0-1.75-.87,2.12,2.12,0,0,0-2.06,2.23v0a2.15,2.15,0,0,0,2.12,2.24,2.39,2.39,0,0,0,1.76-.86l.54.52a3,3,0,0,1-5.3-1.88Z"/><path class="cls-2" d="M39.7,163.8v-3.48h-.8v-.75h.8v-1.74h.86v1.74h1.82v.75H40.56v3.37a.85.85,0,0,0,1,1,1.84,1.84,0,0,0,.83-.2v.73a2.09,2.09,0,0,1-1,.25A1.47,1.47,0,0,1,39.7,163.8Z"/><path class="cls-2" d="M43.51,162.47v0a3,3,0,0,1,6,0v0a3,3,0,0,1-3,3A3,3,0,0,1,43.51,162.47Zm5.13,0v0a2.18,2.18,0,0,0-2.14-2.25,2.13,2.13,0,0,0-2.11,2.23v0a2.16,2.16,0,0,0,2.13,2.24A2.13,2.13,0,0,0,48.64,162.47Z"/><path class="cls-2" d="M50.77,164.59l.43-.61a3.32,3.32,0,0,0,2,.73c.7,0,1.2-.35,1.2-.91v0c0-.58-.68-.81-1.44-1S51,162.2,51,161.14v0a1.75,1.75,0,0,1,2-1.65,3.93,3.93,0,0,1,2.07.63l-.39.65a3.24,3.24,0,0,0-1.71-.56c-.68,0-1.11.36-1.11.84v0c0,.54.71.75,1.48,1s1.85.61,1.85,1.65v0a1.82,1.82,0,0,1-2.05,1.73A4,4,0,0,1,50.77,164.59Z"/><path class="cls-2" d="M60.35,157.53h.88v7.8h-.88Z"/><path class="cls-2" d="M63.65,159.57h.85v1a2.19,2.19,0,0,1,2-1.13,2.11,2.11,0,0,1,2.21,2.31v3.58h-.86V162a1.54,1.54,0,0,0-1.59-1.74A1.7,1.7,0,0,0,64.5,162v3.3h-.85Z"/><path class="cls-2" d="M70.78,159.57h.86v1a2.09,2.09,0,0,1,1.86-1.1,2,2,0,0,1,1.84,1.15,2.32,2.32,0,0,1,2-1.15,2.07,2.07,0,0,1,2.14,2.32v3.57h-.86V162c0-1.11-.56-1.74-1.49-1.74A1.61,1.61,0,0,0,75.57,162v3.32h-.85v-3.39c0-1.08-.57-1.72-1.48-1.72a1.67,1.67,0,0,0-1.6,1.82v3.29h-.86Z"/><path class="cls-2" d="M81.26,162.47v0a3,3,0,0,1,6,0v0a3,3,0,0,1-3,3A3,3,0,0,1,81.26,162.47Zm5.13,0v0a2.18,2.18,0,0,0-2.14-2.25,2.13,2.13,0,0,0-2.11,2.23v0a2.16,2.16,0,0,0,2.13,2.24A2.13,2.13,0,0,0,86.39,162.47Z"/><path class="cls-2" d="M89.93,164.22v1.11h-.86v-8.14h.86v3.53a2.57,2.57,0,0,1,2.2-1.28,2.82,2.82,0,0,1,2.75,3v0a2.82,2.82,0,0,1-2.75,3A2.57,2.57,0,0,1,89.93,164.22ZM94,162.46v0a2.07,2.07,0,0,0-2-2.23,2.16,2.16,0,0,0-2.09,2.22v0A2.15,2.15,0,0,0,92,164.68,2,2,0,0,0,94,162.46Z"/><path class="cls-2" d="M96.7,157.36h1v.95h-1Zm0,2.21h.86v5.76h-.86Z"/><path class="cls-2" d="M99.85,157.19h.86v8.14h-.86Z"/><path class="cls-2" d="M102.89,157.36h1v.95h-1Zm.06,2.21h.85v5.76H103Z"/><path class="cls-2" d="M105.55,163.65v0c0-1.21,1-1.86,2.46-1.86a5.93,5.93,0,0,1,1.77.25v-.2c0-1-.64-1.57-1.72-1.57a3.89,3.89,0,0,0-1.74.42l-.26-.7a4.73,4.73,0,0,1,2.09-.48,2.52,2.52,0,0,1,1.86.63,2.28,2.28,0,0,1,.59,1.68v3.53h-.82v-.87a2.53,2.53,0,0,1-2.08,1A1.94,1.94,0,0,1,105.55,163.65Zm4.24-.44v-.56a6.09,6.09,0,0,0-1.69-.24c-1.08,0-1.68.46-1.68,1.19v0c0,.73.66,1.15,1.44,1.15A1.75,1.75,0,0,0,109.79,163.21Z"/><path class="cls-2" d="M112.71,159.57h.85v1.5a2.46,2.46,0,0,1,2.35-1.6v.92h-.06c-1.26,0-2.29.9-2.29,2.64v2.3h-.85Z"/><path class="cls-2" d="M117.41,157.36h1v.95h-1Zm0,2.21h.86v5.76h-.86Z"/><path class="cls-2" d="M120.15,162.47v0a3,3,0,0,1,6,0v0a3,3,0,0,1-3,3A3,3,0,0,1,120.15,162.47Zm5.12,0v0a2.17,2.17,0,0,0-2.14-2.25,2.12,2.12,0,0,0-2.1,2.23v0a2.16,2.16,0,0,0,2.13,2.24A2.12,2.12,0,0,0,125.27,162.47Z"/><path class="cls-2" d="M127.4,164.59l.44-.61a3.32,3.32,0,0,0,2,.73c.69,0,1.19-.35,1.19-.91v0c0-.58-.68-.81-1.44-1s-1.9-.56-1.9-1.62v0a1.74,1.74,0,0,1,2-1.65,3.93,3.93,0,0,1,2.07.63l-.39.65a3.21,3.21,0,0,0-1.7-.56c-.68,0-1.12.36-1.12.84v0c0,.54.72.75,1.49,1s1.84.61,1.84,1.65v0a1.82,1.82,0,0,1-2.05,1.73A4,4,0,0,1,127.4,164.59Z"/><path class="cls-2" d="M141.08,159.57H142l-2.41,6c-.49,1.19-1.05,1.62-1.92,1.62a2.63,2.63,0,0,1-1.23-.29l.29-.68a1.78,1.78,0,0,0,.91.21c.51,0,.83-.26,1.18-1.08l-2.62-5.73h.95l2.09,4.8Z"/><path class="cls-2" d="M146.83,157.53h2.71a3.88,3.88,0,0,1,4.14,3.87v0a3.9,3.9,0,0,1-4.14,3.9h-2.71Zm.89.81v6.17h1.82a3,3,0,0,0,3.23-3.06v0a3,3,0,0,0-3.23-3.09Z"/><path class="cls-2" d="M155.7,157.36h1v.95h-1Zm.05,2.21h.86v5.76h-.86Z"/><path class="cls-2" d="M158.31,164.59l.43-.61a3.32,3.32,0,0,0,2,.73c.69,0,1.2-.35,1.2-.91v0c0-.58-.68-.81-1.44-1s-1.91-.56-1.91-1.62v0a1.74,1.74,0,0,1,2-1.65,3.94,3.94,0,0,1,2.08.63l-.39.65a3.24,3.24,0,0,0-1.71-.56c-.68,0-1.11.36-1.11.84v0c0,.54.71.75,1.48,1s1.85.61,1.85,1.65v0a1.82,1.82,0,0,1-2.05,1.73A4,4,0,0,1,158.31,164.59Z"/><path class="cls-2" d="M164.17,162.46v0a2.84,2.84,0,0,1,2.76-3,2.74,2.74,0,0,1,2.69,3,1.23,1.23,0,0,1,0,.28H165a2,2,0,0,0,2,2,2.38,2.38,0,0,0,1.82-.81l.53.48a3,3,0,0,1-2.37,1.08A2.86,2.86,0,0,1,164.17,162.46Zm4.58-.33a1.89,1.89,0,0,0-1.84-2,2,2,0,0,0-1.87,2Z"/><path class="cls-2" d="M171.41,159.57h.85v1a2.21,2.21,0,0,1,2-1.13,2.1,2.1,0,0,1,2.2,2.31v3.58h-.86V162a1.54,1.54,0,0,0-1.59-1.74,1.7,1.7,0,0,0-1.73,1.81v3.3h-.85Zm2.51-1.11a2.14,2.14,0,0,0-.69-.21c-.29,0-.41.15-.57.55l-.53-.15c.22-.83.53-1.17,1.06-1.17a2.38,2.38,0,0,1,.8.23,2,2,0,0,0,.69.22c.29,0,.41-.14.58-.55l.52.15c-.22.83-.52,1.17-1.05,1.17A2,2,0,0,1,173.92,158.46Z"/><path class="cls-2" d="M178.18,162.47v0a3,3,0,0,1,6,0v0a3,3,0,0,1-3,3A3,3,0,0,1,178.18,162.47Zm5.12,0v0a2.17,2.17,0,0,0-2.14-2.25,2.12,2.12,0,0,0-2.1,2.23v0a2.16,2.16,0,0,0,2.12,2.24A2.13,2.13,0,0,0,183.3,162.47Z"/><path class="cls-2" d="M189.09,162.06v-4.53H190V162c0,1.68.89,2.62,2.39,2.62s2.34-.86,2.34-2.57v-4.53h.89V162c0,2.28-1.31,3.46-3.26,3.46A3.06,3.06,0,0,1,189.09,162.06Z"/><path class="cls-2" d="M197.85,159.57h.86v1.5a2.46,2.46,0,0,1,2.35-1.6v.92H201c-1.25,0-2.28.9-2.28,2.64v2.3h-.86Z"/><path class="cls-2" d="M203.42,164.22v1.11h-.85v-8.14h.85v3.53a2.6,2.6,0,0,1,2.21-1.28,2.82,2.82,0,0,1,2.75,3v0a2.82,2.82,0,0,1-2.75,3A2.61,2.61,0,0,1,203.42,164.22Zm4.08-1.76v0a2.07,2.07,0,0,0-2-2.23,2.16,2.16,0,0,0-2.09,2.22v0a2.15,2.15,0,0,0,2.09,2.23A2,2,0,0,0,207.5,162.46Z"/><path class="cls-2" d="M209.77,163.65v0c0-1.21,1-1.86,2.46-1.86A5.88,5.88,0,0,1,214,162v-.2c0-1-.63-1.57-1.71-1.57a3.93,3.93,0,0,0-1.75.42l-.26-.7a4.78,4.78,0,0,1,2.1-.48,2.55,2.55,0,0,1,1.86.63,2.28,2.28,0,0,1,.59,1.68v3.53H214v-.87a2.52,2.52,0,0,1-2.08,1A1.94,1.94,0,0,1,209.77,163.65Zm4.25-.44v-.56a6.23,6.23,0,0,0-1.7-.24c-1.08,0-1.68.46-1.68,1.19v0c0,.73.67,1.15,1.45,1.15A1.75,1.75,0,0,0,214,163.21Z"/><path class="cls-2" d="M216.93,159.57h.86v1a2.19,2.19,0,0,1,2-1.13,2.1,2.1,0,0,1,2.2,2.31v3.58h-.85V162a1.54,1.54,0,0,0-1.59-1.74,1.7,1.7,0,0,0-1.73,1.81v3.3h-.86Z"/><path class="cls-2" d="M223.7,162.47v0a3,3,0,0,1,6,0v0a3,3,0,0,1-3,3A3,3,0,0,1,223.7,162.47Zm5.13,0v0a2.18,2.18,0,0,0-2.14-2.25,2.13,2.13,0,0,0-2.11,2.23v0a2.16,2.16,0,0,0,2.13,2.24A2.13,2.13,0,0,0,228.83,162.47Z"/></g></g></svg>